<?xml version="1.0" standalone="no"?>
<!DOCTYPE svg PUBLIC "-//W3C//DTD SVG 20010904//EN"
 "http://www.w3.org/TR/2001/REC-SVG-20010904/DTD/svg10.dtd">
<svg version="1.0" xmlns="http://www.w3.org/2000/svg"
 width="840.000000pt" height="840.000000pt" viewBox="0 0 840.000000 840.000000"
 preserveAspectRatio="xMidYMid meet">
<metadata>
Created by potrace 1.14, written by Peter Selinger 2001-2017
</metadata>
<g transform="translate(0.000000,840.000000) scale(0.100000,-0.100000)"
fill="#000000" stroke="none">
<path d="M4246 5453 c-1 -1 -44 -3 -96 -3 -97 -2 -180 -16 -191 -32 -3 -6 -9
-9 -13 -9 -15 3 -56 -12 -56 -20 0 -5 -6 -9 -14 -9 -7 0 -34 -19 -60 -43 -25
-24 -48 -41 -51 -39 -3 3 -5 0 -5 -6 0 -7 -9 -21 -20 -32 -11 -11 -21 -29 -23
-40 -2 -10 -12 -29 -23 -41 -10 -11 -18 -24 -17 -28 1 -3 -3 -24 -9 -46 -14
-55 -13 -200 3 -255 7 -25 12 -48 11 -52 -1 -5 4 -8 11 -9 6 0 2 -4 -10 -9
-12 -5 -166 -9 -342 -9 -177 0 -325 -3 -331 -6 -12 -7 -12 -603 0 -610 5 -3 7
-14 5 -25 -2 -11 0 -22 6 -25 5 -4 9 -16 9 -28 0 -12 7 -31 15 -41 8 -10 12
-22 10 -26 -3 -4 6 -35 20 -70 13 -34 24 -65 23 -69 -2 -6 46 -168 59 -201 4
-8 7 -17 8 -20 24 -79 30 -97 36 -105 4 -5 13 -36 20 -67 8 -32 16 -58 19 -58
3 0 7 -8 8 -17 3 -30 7 -44 52 -183 25 -74 45 -139 46 -145 1 -5 3 -13 4 -17
1 -5 3 -11 5 -15 5 -19 17 -50 28 -73 l13 -25 2134 0 c2094 0 2136 0 2190 20
30 10 58 18 63 17 4 -1 7 3 7 8 0 6 9 10 20 10 11 0 20 4 20 9 0 5 8 12 19 16
21 6 111 93 111 107 0 5 4 7 9 4 13 -9 78 132 89 194 13 75 14 108 2 182 -13
88 -15 97 -23 104 -4 4 -7 16 -7 26 0 17 7 19 73 18 39 -1 117 -1 173 -1 98 1
101 2 112 26 16 34 17 1031 2 1040 -5 3 -10 15 -10 26 0 15 -7 19 -32 20 -18
0 -109 1 -203 2 l-170 2 3 35 c15 155 8 275 -18 330 -4 8 -14 29 -21 45 -14
32 -23 44 -62 87 -14 15 -22 29 -19 32 3 3 0 6 -7 6 -6 0 -23 11 -37 25 -14
14 -29 25 -34 25 -5 0 -15 6 -22 13 -17 15 -88 48 -101 46 -1 0 -15 5 -32 12
-16 7 -52 14 -80 16 -47 3 -1534 5 -1552 2 -4 -1 -12 -1 -18 0 -13 2 -770 2
-782 0 -4 -1 -12 -1 -18 1 -11 2 -199 1 -212 -1 -5 -1 -12 -1 -18 0 -15 3
-696 6 -699 4z"/>
<path d="M34 4210 c-1 -886 2 -1240 10 -1243 6 -2 565 -3 1241 -3 l1230 1 1
1243 1 1242 -1242 0 -1241 0 0 -1240z"/>
</g>
</svg>
